<?xml version="1.0" encoding="utf-8"?>
<!-- Generator: Adobe Illustrator 16.0.0, SVG Export Plug-In . SVG Version: 6.00 Build 0)  -->
<!DOCTYPE svg PUBLIC "-//W3C//DTD SVG 1.1//EN" "http://www.w3.org/Graphics/SVG/1.1/DTD/svg11.dtd">
<svg version="1.1" id="Layer_1" xmlns="http://www.w3.org/2000/svg" xmlns:xlink="http://www.w3.org/1999/xlink" x="0px" y="0px"
	 width="330px" height="330px" viewBox="0 0 330 330" enable-background="new 0 0 330 330" xml:space="preserve">
<g>
	<g>
		<circle fill-rule="evenodd" clip-rule="evenodd" fill="#0999D6" cx="165.787" cy="164.902" r="164.214"/>
	</g>
</g>
<path fill-rule="evenodd" clip-rule="evenodd" fill="#FFFFFF" d="M165.786,8.418c86.423,0,156.484,70.06,156.484,156.484
	s-70.061,156.484-156.484,156.484S9.302,251.326,9.302,164.902S79.362,8.418,165.786,8.418z"/>
<path fill-rule="evenodd" clip-rule="evenodd" fill="#0C9CD8" d="M114.173,91.372h24.537v6.635l-24.537,24.55V91.372z
	 M248.414,158.331v9.067h-15.09v51.646c-102.848,0-70.629,0-133.576,0v-51.646H84.661v-9.067l81.906-81.89L248.414,158.331z"/>
<g>
	<polygon fill-rule="evenodd" clip-rule="evenodd" fill="#FFFFFF" points="217.938,176.343 153.062,146.366 113.306,228.072 
		163.377,252.545 190.959,241.938 	"/>
	<path fill-rule="evenodd" clip-rule="evenodd" fill="#0C9CD8" d="M192.645,243.363l28.078-60.759
		c1.658-3.583,0.1-7.881-3.482-9.538l-60.253-27.844c-3.579-1.654-7.898-0.066-9.552,3.515
		c-11.702,25.321-23.391,50.61-35.092,75.933c-1.653,3.581-0.063,7.899,3.516,9.554l45.372,20.968
		c1.477,0.682,2.934,0.745,4.404,0.279l24.681-9.79C191.359,245.325,192.174,244.556,192.645,243.363L192.645,243.363z
		 M152.27,150.972c0.42-0.909,1.537-1.348,2.48-0.911l60.258,27.844c0.91,0.421,1.301,1.553,0.881,2.464l-26.932,58.279
		c-0.742,1.523-1.881,2.181-3.721,1.37l-9.166-4.239c-2.779-1.246-4.863-0.529-6.199,2.283l-4.616,9.99
		c-0.924,1.671-2.149,2.173-3.736,1.401l-43.424-20.07c-0.945-0.433-1.352-1.534-0.915-2.478
		C128.884,201.586,140.57,176.295,152.27,150.972L152.27,150.972z"/>
	<path fill-rule="evenodd" clip-rule="evenodd" fill="#0C9CD8" d="M167.105,166.381l38.459,17.772l-2.176,4.711l-38.46-17.772
		L167.105,166.381z M162.766,175.774l38.458,17.771l-2.178,4.711l-38.458-17.769L162.766,175.774z M140.135,224.752l19.215,8.88
		l-2.177,4.714l-19.217-8.883L140.135,224.752z"/>
	
		<rect x="155.32" y="193.952" transform="matrix(-0.9078 -0.4195 0.4195 -0.9078 254.287 449.0003)" fill-rule="evenodd" clip-rule="evenodd" fill="#0C9CD8" width="42.366" height="5.188"/>
	
		<rect x="150.712" y="203.923" transform="matrix(-0.9078 -0.4194 0.4194 -0.9078 241.3112 466.0946)" fill-rule="evenodd" clip-rule="evenodd" fill="#0C9CD8" width="42.362" height="5.194"/>
	
		<rect x="142.534" y="191.536" transform="matrix(-0.9078 -0.4195 0.4195 -0.9078 195.3456 431.2165)" fill-rule="evenodd" clip-rule="evenodd" fill="#0C9CD8" width="5.1" height="5.19"/>
	<polygon fill-rule="evenodd" clip-rule="evenodd" fill="#0C9CD8" points="149.148,205.252 187.602,223.021 185.426,227.735 
		146.967,209.961 	"/>
	
		<rect x="142.471" y="219.422" transform="matrix(-0.9078 -0.4195 0.4195 -0.9078 198.8684 487.7616)" fill-rule="evenodd" clip-rule="evenodd" fill="#0C9CD8" width="21.172" height="5.193"/>
	<g>
		
			<rect x="138.131" y="201.062" transform="matrix(-0.9077 -0.4196 0.4196 -0.9077 182.9187 447.5511)" fill-rule="evenodd" clip-rule="evenodd" fill="#0C9CD8" width="5.099" height="5.192"/>
		
			<rect x="133.522" y="211.039" transform="matrix(-0.9079 -0.4192 0.4192 -0.9079 170.0687 464.6295)" fill-rule="evenodd" clip-rule="evenodd" fill="#0C9CD8" width="5.1" height="5.189"/>
		
			<rect x="128.913" y="221.01" transform="matrix(-0.9078 -0.4195 0.4195 -0.9078 157.0069 481.7319)" fill-rule="evenodd" clip-rule="evenodd" fill="#0C9CD8" width="5.101" height="5.19"/>
		
			<rect x="138.131" y="201.062" transform="matrix(-0.9077 -0.4196 0.4196 -0.9077 182.9187 447.5511)" fill-rule="evenodd" clip-rule="evenodd" fill="#0C9CD8" width="5.099" height="5.192"/>
	</g>
	<g>
		
			<rect x="155.888" y="162.637" transform="matrix(-0.908 -0.419 0.419 -0.908 233.0565 381.6507)" fill-rule="evenodd" clip-rule="evenodd" fill="#0C9CD8" width="5.097" height="5.194"/>
		
			<rect x="151.279" y="172.611" transform="matrix(-0.9078 -0.4193 0.4193 -0.9078 220.0157 398.7704)" fill-rule="evenodd" clip-rule="evenodd" fill="#0C9CD8" width="5.098" height="5.194"/>
		
			<rect x="146.67" y="182.586" transform="matrix(-0.908 -0.419 0.419 -0.908 207.1088 415.8501)" fill-rule="evenodd" clip-rule="evenodd" fill="#0C9CD8" width="5.099" height="5.192"/>
		
			<rect x="155.888" y="162.637" transform="matrix(-0.908 -0.419 0.419 -0.908 233.0565 381.6507)" fill-rule="evenodd" clip-rule="evenodd" fill="#0C9CD8" width="5.097" height="5.194"/>
	</g>
</g>
</svg>
